<svg width="330" height="71" viewBox="0 0 330 71" fill="none" xmlns="http://www.w3.org/2000/svg">
<path opacity="0.8" d="M43.9122 8.54132L33.5562 25.8852L43.9122 43.0061V8.54132Z" fill="black"/>
<path d="M32.9384 27.1334L12.55 62.4587L43.222 44.9558L32.9384 27.1334Z" fill="black"/>
<path opacity="0.6" d="M45.0879 8.54132L55.444 25.8852L45.0879 43.0061V8.54132Z" fill="black"/>
<path opacity="0.4" d="M56.0617 27.1334L76.4501 62.4587L45.7781 44.9558L56.0617 27.1334Z" fill="black"/>
<rect x="1.5" y="5.5" width="89" height="61" stroke="black" stroke-width="3"/>
<rect x="90.5" y="5.5" width="238" height="61" stroke="black" stroke-width="3"/>
<path d="M119.613 35.3711H121.805C123.853 35.3711 125.385 34.9701 126.402 34.168C127.419 33.3516 127.928 32.1699 127.928 30.623C127.928 29.0618 127.498 27.9089 126.639 27.1641C125.794 26.4193 124.462 26.0469 122.643 26.0469H119.613V35.3711ZM134.652 30.3867C134.652 33.7669 133.592 36.3522 131.473 38.1426C129.367 39.9329 126.367 40.8281 122.471 40.8281H119.613V52H112.953V20.5898H122.986C126.796 20.5898 129.689 21.4134 131.666 23.0605C133.657 24.6934 134.652 27.1354 134.652 30.3867ZM147.242 34.5332H149.391C151.496 34.5332 153.05 34.1823 154.053 33.4805C155.055 32.7786 155.557 31.6758 155.557 30.1719C155.557 28.6823 155.041 27.6224 154.01 26.9922C152.993 26.362 151.41 26.0469 149.262 26.0469H147.242V34.5332ZM147.242 39.9473V52H140.582V20.5898H149.734C154.003 20.5898 157.161 21.3704 159.209 22.9316C161.257 24.4785 162.281 26.8346 162.281 30C162.281 31.8477 161.773 33.4948 160.756 34.9414C159.739 36.3737 158.299 37.498 156.438 38.3145C161.164 45.3757 164.243 49.9375 165.676 52H158.285L150.787 39.9473H147.242ZM169.629 52V20.5898H176.289V52H169.629ZM202.736 43.2773C202.736 46.1133 201.712 48.3477 199.664 49.9805C197.63 51.6133 194.794 52.4297 191.156 52.4297C187.805 52.4297 184.84 51.7995 182.262 50.5391V44.3516C184.382 45.2969 186.172 45.9629 187.633 46.3496C189.108 46.7363 190.454 46.9297 191.672 46.9297C193.133 46.9297 194.25 46.6504 195.023 46.0918C195.811 45.5332 196.205 44.7025 196.205 43.5996C196.205 42.9837 196.033 42.4395 195.689 41.9668C195.346 41.4798 194.837 41.0143 194.164 40.5703C193.505 40.1263 192.152 39.4173 190.104 38.4434C188.184 37.541 186.745 36.6745 185.785 35.8438C184.826 35.013 184.059 34.0462 183.486 32.9434C182.913 31.8405 182.627 30.5514 182.627 29.0762C182.627 26.2975 183.565 24.1133 185.441 22.5234C187.332 20.9336 189.939 20.1387 193.262 20.1387C194.895 20.1387 196.449 20.332 197.924 20.7188C199.413 21.1055 200.967 21.6497 202.586 22.3516L200.438 27.5293C198.762 26.8418 197.372 26.362 196.27 26.0898C195.181 25.8177 194.107 25.6816 193.047 25.6816C191.786 25.6816 190.82 25.9753 190.146 26.5625C189.473 27.1497 189.137 27.916 189.137 28.8613C189.137 29.4486 189.273 29.9642 189.545 30.4082C189.817 30.8379 190.247 31.2604 190.834 31.6758C191.436 32.0768 192.846 32.8073 195.066 33.8672C198.003 35.2708 200.015 36.6816 201.104 38.0996C202.192 39.5033 202.736 41.2292 202.736 43.2773ZM221.729 52L214.166 27.3574H213.973C214.245 32.3704 214.381 35.7148 214.381 37.3906V52H208.43V20.5898H217.496L224.93 44.6094H225.059L232.943 20.5898H242.01V52H235.801V37.1328C235.801 36.431 235.808 35.6217 235.822 34.7051C235.851 33.7884 235.951 31.3535 236.123 27.4004H235.93L227.83 52H221.729ZM261.367 52V20.5898H268.027V52H261.367ZM282.594 35.3711H284.785C286.833 35.3711 288.366 34.9701 289.383 34.168C290.4 33.3516 290.908 32.1699 290.908 30.623C290.908 29.0618 290.479 27.9089 289.619 27.1641C288.774 26.4193 287.442 26.0469 285.623 26.0469H282.594V35.3711ZM297.633 30.3867C297.633 33.7669 296.573 36.3522 294.453 38.1426C292.348 39.9329 289.347 40.8281 285.451 40.8281H282.594V52H275.934V20.5898H285.967C289.777 20.5898 292.67 21.4134 294.646 23.0605C296.637 24.6934 297.633 27.1354 297.633 30.3867Z" fill="black"/>
</svg>
